# xmcd
#
# Track frame offsets: 
# 150
# 21364
# 35591
# 48557
# 64930
# 81334
# 104384
#
# Disc length: 1680 seconds
# Submitted via: tkcNetwork 1.0
# Revision: 0
# Processed by: cddbd v1.5.1PL0 Copyright (c) Steve Scherf et al.
#
DISCID=5e068e07
DTITLE=Erix Pizano - 777
DYEAR=1900
DGENRE=
TTITLE0=Animal
TTITLE1=7 Bar Bridge
TTITLE2=Chopin Waltz num 7
TTITLE3=Arabian Caprice
TTITLE4=Look Ahead
TTITLE5=Tampa Not Chicago
TTITLE6=Deep Inside Far Beyond
EXTD=
EXTT0=
EXTT1=
EXTT2=
EXTT3=
EXTT4=
EXTT5=
EXTT6=
PLAYORDER=
